<svg width="20" height="20" viewBox="0 0 20 20" fill="none" xmlns="http://www.w3.org/2000/svg">
<path fill-rule="evenodd" clip-rule="evenodd" d="M16.338 16.338H13.67V12.16C13.67 11.165 13.653 9.883 12.283 9.883C10.893 9.883 10.682 10.969 10.682 12.09V16.338H8.014V7.748H10.573V8.922H10.61C10.966 8.247 11.837 7.535 13.136 7.535C15.839 7.535 16.339 9.313 16.339 11.627V16.338H16.338ZM5.005 6.575C4.80171 6.5752 4.60038 6.53535 4.41249 6.45774C4.2246 6.38013 4.05384 6.26627 3.90996 6.12266C3.76607 5.97906 3.65188 5.80852 3.57391 5.62078C3.49593 5.43304 3.4557 5.23179 3.4555 5.0285C3.4553 4.82521 3.49515 4.62388 3.57276 4.43599C3.65037 4.2481 3.76423 4.07734 3.90784 3.93346C4.05144 3.78957 4.22198 3.67538 4.40972 3.59741C4.59746 3.51943 4.79871 3.4792 5.002 3.479C5.41255 3.4786 5.80645 3.64131 6.09704 3.93134C6.38763 4.22136 6.5511 4.61494 6.5515 5.0255C6.5519 5.43606 6.38919 5.82995 6.09916 6.12054C5.80914 6.41113 5.41556 6.5746 5.005 6.575ZM3.668 16.338H6.34V7.748H3.667V16.338H3.668ZM17.668 1H2.328C1.595 1 1 1.581 1 2.298V17.701C1 18.418 1.595 19 2.328 19H17.668C18.402 19 19 18.418 19 17.701V2.298C19 1.581 18.402 1 17.668 1Z" fill="#242323"/>
</svg>
