<svg width="213" height="36" viewBox="0 0 213 36" fill="none" xmlns="http://www.w3.org/2000/svg">
<g clip-path="url(#clip0_1052_494)">
<path d="M5.34994 10.8901C7.23647 10.8901 8.01058 11.7627 8.6356 11.7627C8.98538 11.7627 9.123 11.5848 9.36957 11.3092C9.47278 11.1714 9.58173 11.0968 9.75376 11.0968C9.92578 11.0968 10.0003 11.2001 10.0003 11.3781V15.299C10.0003 15.4023 9.8627 15.5114 9.68495 15.5114C9.51292 15.5114 9.40397 15.4425 9.36957 15.299C8.73881 12.6698 7.55185 11.5159 5.34421 11.5159C3.77879 11.5216 2.86706 12.4688 2.86706 13.8696C2.86706 14.989 3.60103 16.1084 6.36488 17.0212C9.79389 18.1407 11.1586 19.8227 11.1586 21.9927C11.1586 24.7941 9.16314 26.7919 5.63092 26.7919C3.3946 26.7919 2.6205 25.8102 1.53675 25.8102C1.18696 25.8102 0.940397 25.9882 0.62502 26.3728C0.521806 26.5106 0.412857 26.5852 0.240833 26.5852C0.0688095 26.5795 0 26.4762 0 26.2982V20.8675C0 20.7642 0.103214 20.6551 0.315377 20.6551C0.561945 20.6551 0.59635 20.7584 0.630754 20.8675C1.33032 24.266 2.94161 26.1547 5.63092 26.1547C7.6952 26.1547 8.91657 25.0352 8.91657 23.3877C8.91657 21.809 7.97044 20.724 5.28113 19.8514C2.06429 18.8066 0.630754 17.3714 0.630754 14.989C0.630754 12.3999 2.83266 10.8901 5.34994 10.8901Z" fill="#242323"/>
<path d="M19.5018 17.9684C20.8321 17.9684 21.7782 18.2842 22.5466 18.6344V15.2359C22.5466 12.5722 21.2851 11.5216 19.5706 11.5216C17.8217 11.5216 16.9444 12.2564 16.9444 12.9568C16.9444 13.7605 17.6095 14.0762 17.6095 15.0234C17.6095 15.7583 17.0476 16.3897 16.176 16.3897C15.3388 16.3897 14.6736 15.5114 14.6736 14.501C14.6736 12.7846 16.7379 10.8959 19.5706 10.8959C23.8368 10.8959 25.9355 12.9281 25.9355 16.4299V24.4497C25.9355 25.5691 26.3541 25.9193 27.0536 25.9193C27.4722 25.9193 28.0342 25.7414 28.3839 25.5347C28.5617 25.4314 28.8713 25.9538 28.7337 26.0628C27.9309 26.5508 27.1224 26.7976 26.1476 26.7976C24.6109 26.7976 23.2806 25.6438 22.8218 24.2086H22.6842C22.1223 25.8562 20.6543 26.7976 18.8022 26.7976C15.27 26.7976 13.6931 24.7999 13.6931 22.4175C13.6988 19.5758 15.7975 17.9684 19.5018 17.9684ZM19.8172 26.0227C21.2163 26.0227 22.3344 24.6564 22.5466 22.3429V19.2945C21.9502 18.9099 21.0787 18.5597 20.1669 18.5597C18.4524 18.5597 17.3343 19.5069 17.3343 22.4117C17.3343 25.1099 18.2116 26.0227 19.8172 26.0227Z" fill="#242323"/>
<path d="M29.9608 25.7414H31.813C32.3405 25.7414 32.4093 25.6725 32.4093 25.1443V12.5377C32.4093 12.0096 32.3405 11.9407 31.813 11.9407H30.3794C30.2418 11.9407 30.1673 11.9062 30.1673 11.6249C30.1673 11.3437 30.2361 11.3092 30.3794 11.3092H35.2076C35.7351 11.3092 35.8039 11.3781 35.8039 11.9062C35.8039 12.3942 35.7351 13.3414 35.6663 14.0418L35.7695 14.1107C36.3659 12.4286 37.765 10.8901 40.4944 10.8901C44.0267 10.8901 45.9877 12.8133 45.9877 16.3208V25.1443C45.9877 25.6725 46.0565 25.7414 46.5841 25.7414H48.0176C48.1552 25.7414 48.2298 25.7758 48.2298 26.0571C48.2298 26.3384 48.161 26.3728 48.0176 26.3728H40.3167C40.1791 26.3728 40.1045 26.3384 40.1045 26.0571C40.1045 25.7758 40.1733 25.7414 40.3167 25.7414H41.928C42.4555 25.7414 42.5243 25.6725 42.5243 25.1443V15.9362C42.5243 12.7846 41.194 11.6651 39.4451 11.6651C37.6618 11.6651 36.2626 13.2783 35.8785 15.6549V25.1443C35.8785 25.6725 35.9473 25.7414 36.4748 25.7414H38.0861C38.2237 25.7414 38.2983 25.7758 38.2983 26.0571C38.2983 26.3384 38.2294 26.3728 38.0861 26.3728H29.9608C29.8232 26.3728 29.7487 26.3384 29.7487 26.0571C29.7487 25.7758 29.8232 25.7414 29.9608 25.7414Z" fill="#242323"/>
<path d="M57.003 10.8901C59.3138 10.8901 60.7818 11.9751 61.619 13.5538L61.7222 13.4849C61.6878 13.1347 61.619 11.3838 61.619 10.0175V1.22851C61.619 0.700367 61.5501 0.631478 61.0226 0.631478H59.3769C59.2393 0.631478 59.1648 0.597034 59.1648 0.315739C59.1648 0.0344443 59.2336 0 59.3769 0H64.486C65.0136 0 65.0824 0.0688885 65.0824 0.597034V25.1443C65.0824 25.6725 65.1512 25.7413 65.6787 25.7413H67.29C67.4276 25.7413 67.5022 25.7758 67.5022 26.0571C67.5022 26.3384 67.4334 26.3728 67.29 26.3728H62.2898C61.7623 26.3728 61.6935 26.3039 61.6935 25.7758C61.6935 25.5289 61.7967 24.1627 61.8311 23.6058L61.7222 23.5369C60.9882 25.4658 59.4859 26.7919 56.9973 26.7919C53.2185 26.7919 50.3858 23.6747 50.3858 18.841C50.3915 14.0073 53.2242 10.8901 57.003 10.8901ZM55.8103 25.041C56.5099 25.7413 57.2094 26.0226 58.0122 26.0226C59.8987 26.0226 61.1946 24.3062 61.6476 21.5047V15.9362C61.4756 13.5883 60.0019 11.6651 58.0122 11.6651C57.2094 11.6651 56.5099 11.9464 55.8103 12.6468C54.933 13.5251 54.1302 15.586 54.1302 18.8468C54.1302 22.096 54.9387 24.1627 55.8103 25.041Z" fill="#242323"/>
<path d="M68.8669 25.7413H70.719C71.2466 25.7413 71.3154 25.6725 71.3154 25.1443V12.5377C71.3154 12.0096 71.2466 11.9407 70.719 11.9407H69.2167C69.0791 11.9407 69.0045 11.9062 69.0045 11.6249C69.0045 11.3436 69.0733 11.3092 69.2167 11.3092H74.1824C74.71 11.3092 74.7788 11.3781 74.7788 11.9062V25.1443C74.7788 25.6725 74.8476 25.7413 75.3751 25.7413H76.9864C77.1241 25.7413 77.1986 25.7758 77.1986 26.0571C77.1986 26.3384 77.1298 26.3728 76.9864 26.3728H68.8669C68.7293 26.3728 68.6547 26.3384 68.6547 26.0571C68.6605 25.7758 68.7293 25.7413 68.8669 25.7413ZM72.8235 0.63147C74.085 0.63147 75.0598 1.68202 75.0598 2.8359C75.0598 3.98979 74.0792 5.00589 72.8235 5.00589C71.5619 5.00589 70.6215 3.98979 70.6215 2.8359C70.6215 1.68202 71.5619 0.63147 72.8235 0.63147Z" fill="#242323"/>
<path d="M88.4375 11.3092H90.5706V10.9934C90.5706 10.8557 90.605 10.7466 90.7082 10.6088C91.7231 9.17364 92.4571 7.80735 93.1567 6.30329C93.3344 5.9531 93.4032 5.88422 93.6097 5.88422C93.8906 5.88422 94.0283 5.9531 94.0283 6.48125V11.3149H97.9103C98.0479 11.3149 98.1224 11.3494 98.1224 11.6307C98.1224 11.912 98.0536 11.9464 97.9103 11.9464H94.0283V23.5369C94.0283 25.0754 94.5558 25.6036 95.4962 25.6036C96.299 25.6036 97.1763 24.9721 97.9447 23.5025C98.0479 23.2901 98.6098 23.5369 98.5066 23.7493C97.5605 25.8504 96.2302 26.7976 94.4813 26.7976C91.9984 26.7976 90.5649 25.2189 90.5649 22.0673V11.9407H88.4318C88.2941 11.9407 88.2196 11.9062 88.2196 11.6249C88.2253 11.3494 88.2941 11.3092 88.4375 11.3092Z" fill="#242323"/>
<path d="M100.342 25.7414H102.194C102.721 25.7414 102.79 25.6725 102.79 25.1443V12.5377C102.79 12.0096 102.721 11.9407 102.194 11.9407H100.548C100.41 11.9407 100.336 11.9062 100.336 11.6249C100.336 11.3437 100.405 11.3092 100.548 11.3092H105.583C106.11 11.3092 106.179 11.3781 106.179 11.9062V12.0842C106.179 12.4344 106.11 13.8007 106.11 14.3231L106.213 14.392C106.701 12.3253 108.174 10.8901 110.164 10.8901C111.982 10.8901 113.14 12.1875 113.14 13.5883C113.14 14.9546 112.125 15.8271 111.145 15.8271C110.267 15.8271 109.677 15.2301 109.677 14.4609C109.677 13.5136 110.273 13.1979 110.273 12.5377C110.273 12.0498 109.958 11.6594 109.401 11.6594C108.174 11.6594 106.706 13.1979 106.253 16.7744V25.1443C106.253 25.6725 106.322 25.7414 106.85 25.7414H108.914C109.052 25.7414 109.126 25.7758 109.126 26.0571C109.126 26.3384 109.057 26.3728 108.914 26.3728H100.342C100.204 26.3728 100.129 26.3384 100.129 26.0571C100.135 25.7758 100.204 25.7414 100.342 25.7414Z" fill="#242323"/>
<path d="M122.452 10.8901C126.443 10.8901 128.68 14.2197 128.68 17.647C128.68 18.1005 128.542 18.2095 128.118 18.2095H118.777V18.841C118.777 22.2395 119.339 23.9904 120.388 25.041C121.019 25.6725 121.999 26.0227 122.974 26.0227C125.251 26.0227 126.925 24.3406 127.906 22.693C128.009 22.5151 128.502 22.7964 128.433 22.9743C127.487 25.0065 125.216 26.7919 122.452 26.7919C118.358 26.7919 115.038 23.4278 115.038 18.841C115.038 14.1853 118.536 10.8901 122.452 10.8901ZM120.182 12.3253C119.063 13.4448 118.748 15.3047 118.748 17.6125H124.66C125.147 17.6125 125.291 17.5781 125.291 17.2279C125.291 14.4264 125.01 13.0946 124.138 12.222C123.651 11.734 122.951 11.4872 122.252 11.4872C121.581 11.4872 120.738 11.7685 120.182 12.3253Z" fill="#242323"/>
<path d="M130.354 25.7413H132.384C132.911 25.7413 132.98 25.6725 132.98 25.1443V1.22851C132.98 0.700367 132.911 0.631478 132.384 0.631478H130.738C130.601 0.631478 130.526 0.597034 130.526 0.315739C130.526 0.0344443 130.595 0 130.738 0H135.847C136.375 0 136.444 0.0688885 136.444 0.597034V25.1443C136.444 25.6725 136.512 25.7413 137.04 25.7413H138.651C138.789 25.7413 138.863 25.7758 138.863 26.0571C138.863 26.3384 138.795 26.3728 138.651 26.3728H130.36C130.222 26.3728 130.148 26.3384 130.148 26.0571C130.148 25.7758 130.216 25.7413 130.354 25.7413Z" fill="#242323"/>
<path d="M140.228 25.7413H142.08C142.608 25.7413 142.677 25.6725 142.677 25.1443V12.5377C142.677 12.0096 142.608 11.9407 142.08 11.9407H140.578C140.44 11.9407 140.366 11.9062 140.366 11.6249C140.366 11.3436 140.435 11.3092 140.578 11.3092H145.544C146.071 11.3092 146.14 11.3781 146.14 11.9062V25.1443C146.14 25.6725 146.209 25.7413 146.736 25.7413H148.348C148.485 25.7413 148.56 25.7758 148.56 26.0571C148.56 26.3384 148.491 26.3728 148.348 26.3728H140.234C140.096 26.3728 140.022 26.3384 140.022 26.0571C140.016 25.7758 140.085 25.7413 140.228 25.7413ZM144.179 0.63147C145.44 0.63147 146.415 1.68202 146.415 2.8359C146.415 3.98979 145.435 5.00589 144.179 5.00589C142.917 5.00589 141.977 3.98979 141.977 2.8359C141.977 1.68202 142.917 0.63147 144.179 0.63147Z" fill="#242323"/>
<path d="M149.563 11.3092H157.402C157.539 11.3092 157.614 11.3436 157.614 11.6249C157.614 11.9062 157.545 11.9407 157.367 11.9407H155.481C154.953 11.9407 154.953 12.0096 155.166 12.5377L158.033 19.7193C158.382 20.5575 158.944 22.1017 159.329 23.2556H159.466L161.634 17.1245C163.245 12.5722 162.895 12.0842 160.481 11.9407C160.343 11.9407 160.269 11.8718 160.269 11.6249C160.269 11.3436 160.338 11.3092 160.481 11.3092H165.974C166.112 11.3092 166.187 11.3436 166.187 11.6249C166.187 11.8718 166.118 11.9407 165.974 11.9407C164.472 12.0785 164.088 12.4688 162.339 17.2968L159.088 26.1949C159.019 26.3728 158.876 26.4762 158.704 26.4762H157.476C157.264 26.4762 157.23 26.4073 157.127 26.1949L151.668 12.5377C151.456 12.0096 151.387 11.9407 150.865 11.9407H149.569C149.431 11.9407 149.357 11.9062 149.357 11.6249C149.351 11.3494 149.426 11.3092 149.563 11.3092Z" fill="#242323"/>
<path d="M167.012 25.7413H168.864C169.392 25.7413 169.461 25.6725 169.461 25.1443V12.5377C169.461 12.0096 169.392 11.9407 168.864 11.9407H167.362C167.224 11.9407 167.15 11.9062 167.15 11.6249C167.15 11.3436 167.219 11.3092 167.362 11.3092H172.328C172.855 11.3092 172.924 11.3781 172.924 11.9062V25.1443C172.924 25.6725 172.993 25.7413 173.521 25.7413H175.132C175.269 25.7413 175.344 25.7758 175.344 26.0571C175.344 26.3384 175.275 26.3728 175.132 26.3728H167.018C166.88 26.3728 166.806 26.3384 166.806 26.0571C166.8 25.7758 166.869 25.7413 167.012 25.7413ZM170.963 0.63147C172.225 0.63147 173.199 1.68202 173.199 2.8359C173.199 3.98979 172.219 5.00589 170.963 5.00589C169.702 5.00589 168.761 3.98979 168.761 2.8359C168.761 1.68202 169.702 0.63147 170.963 0.63147Z" fill="#242323"/>
<path d="M176.858 25.7414H178.71C179.237 25.7414 179.306 25.6725 179.306 25.1443V12.5377C179.306 12.0096 179.237 11.9407 178.71 11.9407H177.276C177.139 11.9407 177.064 11.9062 177.064 11.6249C177.064 11.3437 177.133 11.3092 177.276 11.3092H182.105C182.632 11.3092 182.701 11.3781 182.701 11.9062C182.701 12.3942 182.632 13.3414 182.563 14.0418L182.666 14.1107C183.263 12.4286 184.662 10.8901 187.391 10.8901C190.924 10.8901 192.885 12.8133 192.885 16.3208V25.1443C192.885 25.6725 192.953 25.7414 193.481 25.7414H194.915C195.052 25.7414 195.127 25.7758 195.127 26.0571C195.127 26.3384 195.058 26.3728 194.915 26.3728H187.219C187.082 26.3728 187.007 26.3384 187.007 26.0571C187.007 25.7758 187.076 25.7414 187.219 25.7414H188.831C189.358 25.7414 189.427 25.6725 189.427 25.1443V15.9362C189.427 12.7846 188.097 11.6651 186.348 11.6651C184.564 11.6651 183.165 13.2783 182.781 15.6549V25.1443C182.781 25.6725 182.85 25.7414 183.377 25.7414H184.989C185.126 25.7414 185.201 25.7758 185.201 26.0571C185.201 26.3384 185.132 26.3728 184.989 26.3728H176.875C176.737 26.3728 176.663 26.3384 176.663 26.0571C176.646 25.7758 176.714 25.7414 176.858 25.7414Z" fill="#242323"/>
<path d="M200.511 27.0387V26.901C198.097 26.7976 196.876 25.4314 196.876 23.6804C196.876 21.7171 198.378 20.3164 201.004 20.1786L201.039 20.0753C199.324 19.3405 197.994 17.624 197.994 15.9075C197.994 13.2438 200.373 10.9016 203.974 10.9016C205.655 10.9016 207.088 11.4298 208.137 12.2679C208.556 10.7983 209.537 10.029 210.798 10.029C212.266 10.029 213 10.8672 213 11.8144C213 12.796 212.266 13.4964 211.532 13.4964C210.867 13.4964 210.38 13.1118 210.38 12.4114C210.38 11.6766 210.867 11.3953 210.867 11.0107C210.867 10.7983 210.62 10.6261 210.38 10.6261C209.577 10.6261 208.843 11.4298 208.562 12.6583C209.439 13.5366 209.961 14.6905 209.961 15.9133C209.961 18.7836 207.65 20.8847 203.98 20.8847C203.177 20.8847 202.403 20.6379 201.669 20.6379C199.433 20.6379 198.206 21.3727 198.206 22.6356C198.206 23.5082 198.871 24.0019 199.989 24.0019H205.97C209.852 24.0019 212.094 26.103 212.094 29.0423C212.094 32.9287 208.459 36.0115 203.98 36.0115C199.255 36.0115 196.807 34.0137 196.807 31.4247C196.801 29.3121 198.309 27.8424 200.511 27.0387ZM203.974 35.3685C207.65 35.3685 210.024 33.1985 210.024 30.5004C210.024 28.2615 208.447 27.033 206.28 27.033H201.841C200.339 27.4521 199.359 28.5371 199.359 31.4132C199.359 33.9678 200.683 35.3685 203.974 35.3685ZM202.157 19.5758C202.61 20.0293 203.241 20.2762 203.974 20.2762C204.708 20.2762 205.339 20.0293 205.792 19.5758C206.492 18.8755 206.842 17.8249 206.842 15.896C206.842 13.9327 206.492 12.8822 205.792 12.1818C205.339 11.7283 204.708 11.4814 203.974 11.4814C203.241 11.4814 202.61 11.7283 202.157 12.1818C201.457 12.8822 201.107 13.9327 201.107 15.896C201.107 17.8249 201.457 18.8755 202.157 19.5758Z" fill="#242323"/>
</g>
<defs>
<clipPath id="clip0_1052_494">
<rect width="213" height="36" fill="white"/>
</clipPath>
</defs>
</svg>
